<svg id="Capa_1" data-name="Capa 1" xmlns="http://www.w3.org/2000/svg" width="395" height="229" viewBox="0 0 395 229"><defs><style>.cls-1{fill:#e182a8;}.cls-2{isolation:isolate;font-size:36px;fill:#1d1d1b;font-family:Lato-Regular, Lato;letter-spacing:0.19em;}.cls-3{letter-spacing:0.13em;}.cls-4{letter-spacing:0.15em;}.cls-5{letter-spacing:0.19em;}</style></defs><title>LogosvgAlbertog</title><path class="cls-1" d="M93.49,53.77c5.41,5.68,12,12.17,10.3,20.77-1.11,5.52-4.51,9.87-8.37,13.8,1,.1,2.08.28,3.12.36,4.85-4.42,8.54-9.9,8.72-16.81.26-10.43-9.6-18.61-16.34-25.31-4.06-4-8.39-7.72-12.65-11.54-4-3.61-7.93-8.55-5.8-14.25,1.86-5,6.93-9.24,11.46-11.76,5.37-3,12-3.44,16.38,1.5s3.4,12.25-1.63,16.39a9.44,9.44,0,0,1-9.33,1.69c-3.59-1.46-4.94-6.29-1.67-8.89.26-.21-.07-.61-.35-.45-3.67,2.09-3.17,7.33,0,9.62,3.89,2.78,9.29,1.49,12.75-1.34,8.36-6.84,4.26-20.75-6.31-22.33-5.69-.86-11.11,2.13-15.39,5.59s-8.81,8.41-8.55,14.39c.23,5.52,4.53,9.87,8.26,13.48C83.28,43.69,88.54,48.57,93.49,53.77Z"/><path class="cls-1" d="M117,18.16a8.78,8.78,0,0,0-4.56-4.78c-.7-.31-1.51.51-.88,1.14,1.2,1.17,2.42,2.4,3.64,3.68,1.42,3.5-.2,8.14-2.39,11.35-3.18,4.67-7.89,8.13-10.43,13.25-4.1,8.24-3.22,18.8,3.54,25.34a.27.27,0,0,0,.42-.33,27.73,27.73,0,0,1-3.82-16.06c.53-6.34,3.89-10.94,8.06-15.49,3.18-3.48,7.46-8,7.43-13.08a13.82,13.82,0,0,0-.19-2.13c7.59,8.58,14,19.07,10.86,30.68-1.76,6.48-6.39,11.64-11.1,16.2-5.3,5.13-10.89,10-16.18,15.09-.61.59.3,1.48.92.93,6.14-5.46,12.34-11,18.08-16.91,4.56-4.67,8.75-10.12,10-16.69C132.69,37.72,125.14,27.1,117,18.16Z"/><path class="cls-1" d="M118.81,34.68c-.15-.18-.49,0-.4.23,3.49,8.28-4.17,15.75-7.69,22.67a68.74,68.74,0,0,0-7,22.69c0,.19.27.21.32,0A125.64,125.64,0,0,1,115.41,54.2C118.68,48.7,123.73,40.77,118.81,34.68Z"/><path class="cls-1" d="M100.19,67.68c-2.71-.25-5.51.53-8.18.93a75.34,75.34,0,0,1-10.92,1c-6.34,0-12.91-1.19-18.1-5-4.22-3.13-8.71-8.93-8.1-14.57,5.76,3.73,15,2.57,21.21,2.29,8.7-.39,19,.1,24,8.48a0,0,0,0,0,.08,0c-2.47-7.2-10.22-10.32-17.26-10.85-5.05-.39-10.11.29-15.16.21A35,35,0,0,1,61,49.41c-2.29-.48-4.32-1.55-6.55-2.21a1,1,0,0,0-1.28,1c.4,4.67,1.17,8.59,4.1,12.41a25,25,0,0,0,11.44,8.23c5.64,2,11.76,2.13,17.66,1.6,4-.36,20.44-4.81,18,3.65a.4.4,0,0,0,.73.31C107.09,71,103.34,68,100.19,67.68Z"/><path class="cls-1" d="M105.39,66.87c-2.28-7.2-10.71-6.35-16.69-5.08-4.5,1-8.89,1.42-13.42.37-4.34-1-7.57-3.27-11.27-5.57-.12-.08-.23.1-.15.2,4,4.87,11.52,7.22,17.59,7.61,4.08.27,8-.82,12.06-1.1,3.84-.27,8.49.68,11,4C104.81,67.65,105.58,67.45,105.39,66.87Z"/><path class="cls-1" d="M79.4,21.49a5.21,5.21,0,0,0-6.84,2.74c-1.54,3.57.58,7.24,2.73,10,.11.14.32,0,.24-.18-1.7-3-4.41-8-1-11A4.14,4.14,0,0,1,81.18,25c.92,3.14-2.27,6.16-5.12,3.68a.33.33,0,0,0-.51.4c1.28,2.46,4.6,1.86,6-.2A5.16,5.16,0,0,0,79.4,21.49Z"/><path class="cls-1" d="M91.77,8.69c-2.55-1.42-5.7-.86-8.34,0a.12.12,0,0,0,.06.24c3.2-.45,8.3-1.52,9.89,2.44A3.44,3.44,0,0,1,91,16c-1.89.39-3-.93-4-2.23-.27-.33-.71,0-.65.38.77,4.38,7.43,3.3,8-.69A4.75,4.75,0,0,0,91.77,8.69Z"/><path class="cls-1" d="M74.58,8.5c-2.44-2-6.54-2.8-9.25-.86-2,1.44-3.11,4.48-1.62,6.66,1.35,1.95,4.41,2.4,5.93.46a.25.25,0,0,0-.36-.35,3.28,3.28,0,0,1-4.92-1c-1-1.95.18-4.37,2-5.36a7.08,7.08,0,0,1,6.22.15c2.24,1.09,4.33,3.84,1.92,6-.15.14,0,.38.22.28C77.16,13.12,76.43,10.06,74.58,8.5Z"/><text class="cls-2" transform="translate(83.99 218.55)">S<tspan class="cls-3" x="26.06" y="0">P</tspan><tspan x="52.56" y="0">A SA</tspan><tspan class="cls-4" x="155.48" y="0">L</tspan><tspan class="cls-5" x="179.53" y="0">ON</tspan></text><path class="cls-1" d="M89.36,74.78q2.88,1.44,2.88,3.75L89.8,86.28a.51.51,0,0,0,.5.44,5.47,5.47,0,0,1,2.81-.88,7.18,7.18,0,0,0,1.56.19,10.64,10.64,0,0,1,4.88-.88h.19a17.48,17.48,0,0,1,2.87.25,7.54,7.54,0,0,1,2.19-.25v.44l-.19.44.63.44h.43a4,4,0,0,1,2.44-1.32H109c.87.09,1.31.32,1.31.69a1.77,1.77,0,0,0-.19.63,7.1,7.1,0,0,1,1.75-.63,4.54,4.54,0,0,1,1.56.88,1.7,1.7,0,0,0,.63-.25q5.92,0,14.56,7.5a8.29,8.29,0,0,1,1.75,4.87v.44a.17.17,0,0,1-.19.19l.19.43q0,4.06-8.81,10.63-5.39,4.38-18.06,9.25-3,1.44-11.88,3.25-.49.43-12.37,2.25H75.92c-2.5.67-3.75,1.25-3.75,1.75a64.66,64.66,0,0,1-3.06,6.19,77.25,77.25,0,0,0,6.38,8.37A41.78,41.78,0,0,0,85,153.22q6.93,7.36,14.31,9.93c3.2,1.34,5.33,2,6.37,2q1.18.75,12.38,1.75c0,.17.06.25.19.25a3.29,3.29,0,0,1,1.75-.5l.93.25c.58-.2.88-.43.88-.68l1.06.25c.75-.34,1.13-.57,1.13-.69l.43.25,5.75-1.75a3.12,3.12,0,0,0,1.94,1.06h.44v-.19a1.81,1.81,0,0,1-.19-.68,2.47,2.47,0,0,1,1.31-.44v.44l-.25.43.5.25c.29,0,.44-.43.44-1.31h.19c.75,0,1.12.19,1.12.44l.44-.25h.63l-.44.69-.44-.25h-.44q-5.19,4-9.43,4a9.88,9.88,0,0,1-4.19,1.06q0,.32-.69.69c-.17,0-.9-.09-2.19-.25l-2.43.68c-2.67-.16-4.44-.25-5.32-.25-1,.17-1.62.25-1.75.25a42.72,42.72,0,0,0-8.12-1.56q-.26-.37-5.75-2.19-6.75-3.93-8.13-5.31-4.31-1.87-15-14.75-4.5-7.68-5.93-7.69A51.76,51.76,0,0,0,62.05,149q-.37,0-2.63,4.19-5.56,10.62-7.5,12.56a17.36,17.36,0,0,1-3.06,4.62,20.51,20.51,0,0,1-2.63,4c-.66,1.46-1.56,2.19-2.68,2.19v1.31q-5.62,6.63-8.57,6.63l-.25-.44v-.25c.42,0,1.23-.64,2.44-1.94a1.54,1.54,0,0,1,.25.88c.13,0,.48-.38,1.06-1.13a2,2,0,0,0-.62-.18V181q1.5-1.32,1.5-1.56V179l-.19-.44c.88,0,1.31-.67,1.31-2,.71,0,1.07-.21,1.07-.62v-.25l-.19-.44c.62,0,1.15-.81,1.56-2.44l2.19-1.31c0-.29-.29-.44-.88-.44v-.44c0-.12.44-.56,1.32-1.31v-.25c0-.12-.09-.19-.25-.19a35.23,35.23,0,0,1,2.25-3.31v-.25h.18l1.13.69c0-.17.06-.25.19-.25,0-.21-.36-.65-1.07-1.31,0-.5.65-1.46,1.94-2.88.54-1.87,1.29-2.81,2.25-2.81v.44h.63v-.69c-.59,0-.88-.15-.88-.44v-.44a4.3,4.3,0,0,1,2-3.06l-.25-.44v-.25q4.38-8.49,6-10.12l-.5-.69v-.19a2.18,2.18,0,0,0,.5-.68c0-.71-.17-1.07-.5-1.07q2.31-4.43,3.57-4.43l-.25-1.32a5.82,5.82,0,0,0,.68-2q-4.94-6.81-9.94-6.81c-.54-.29-1-1.16-1.5-2.62.21-.63.42-.94.63-.94l-.19-.44v-.19c1.17,0,1.75-.22,1.75-.68a26.29,26.29,0,0,0,5.5,1.31.22.22,0,0,0,.25.25h.19a2.45,2.45,0,0,1,1.56-.69h1.07c.87,0,2.06.09,3.56.25q1.42,0,3.5-2.87h.25v-.63a4.55,4.55,0,0,1,1.06-2,1.89,1.89,0,0,0-.19-.69q2.19-7.5,4.82-10.75a25.09,25.09,0,0,1,1.31-5.12l.94.69h.18V99.9c1-2,1.57-3,1.57-3.06a1.49,1.49,0,0,1-.25-.69c1-1.29,1.62-1.93,2-1.93-.13-.88-.28-1.32-.44-1.32q-3.75,0-22.07,7.44l-16.25,8.19q0,.31-7.06,4.37c0,.38-.73.9-2.19,1.57q-4.87,4.07-4.87,7.68c-.88.38-1.31.61-1.31.69a4.93,4.93,0,0,1-2.88-1.56l.25-.44V118.4q3.88-5.25,4.81-5.25A10.53,10.53,0,0,0,31.42,111c1.09-.34,3.38-2,6.88-4.88l.43.25h.44a43.77,43.77,0,0,1,13.19-7.5h.87c.42-.91,2-1.73,4.63-2.44a43.65,43.65,0,0,1,7.94-3.5A44.69,44.69,0,0,1,75.49,90c0-.17.51-.25,1.56-.25h.44c0-.42.14-.63.43-.63l1.57.19c.29-.58,1.39-1.16,3.31-1.75A11.42,11.42,0,0,0,85,83.15a.38.38,0,0,0,.43-.43,1.52,1.52,0,0,0-.25-.88l1.38-5.5A4.48,4.48,0,0,1,89.36,74.78Zm-46,98.5-.44.69v.43h.88a.38.38,0,0,0,.43-.43v-.69ZM64.74,127v.69c0,.21.2.41.62.62.46-.12.69-.56.69-1.31Zm9.87-6.38v.19c0,.29.23.44.69.44.29,0,.44-.06.44-.19l1.56.19a18.48,18.48,0,0,0,4.62-.63c0,.3.19.44.44.44a6.69,6.69,0,0,0,2.19-.69l1.12.25c0-.45.21-.68.63-.68a1.61,1.61,0,0,0,.69.25,2.31,2.31,0,0,0,.18-.88h2.44c.58-.29.88-.52.88-.69a3.44,3.44,0,0,0,1.56.44c0-.41,1.31-1,3.94-1.75l.43.19h.69q.81-.87,5.06-1.94l4.19-2,1.31.19a3.78,3.78,0,0,1,1.75-1.31l.44.25h.69c0-1,1.25-1.82,3.75-2.44.62-.83,2.37-1.94,5.25-3.31,0-.59,1.39-2.13,4.19-4.63a13.32,13.32,0,0,0,1.37-4.81q0-3.75-11.5-7.06a55.36,55.36,0,0,0-10.56-.88,1.8,1.8,0,0,0-.69.19l-.44-.19q-14.74.57-14.75,2.63Q85.87,95.84,74.61,120.65Z"/><path class="cls-1" d="M135.67,119.86l.76-.17c4.73-.39,7.32.15,7.79,1.64.24-.08.92,1.07,2.05,3.45a12.56,12.56,0,0,1-.23,4.69l-.06-.18h-.06q1.41-.28,10.26-7.08a6.19,6.19,0,0,1,1.87-.88q.88,2.81-9.37,11.07a16.78,16.78,0,0,1-5,2.34,46.93,46.93,0,0,1-6.57,5.92,10.74,10.74,0,0,0-1.52.59q-5.1,1.23-8.73-3.11a25.55,25.55,0,0,1-1.46-2.87q-2.36-7.38,3.28-11.78a10,10,0,0,1,5.68-3.1C134.34,120.27,134.77,120.1,135.67,119.86Zm-6.5,13.3.17.53q1.11,3.63,2.58,3.93a5.28,5.28,0,0,0,2.64-.12c2.14-1.29,3.3-2.17,3.45-2.64v.06q-5.5-2.52-6.74-6.27c-.11,0-.23-.15-.35-.59a10.68,10.68,0,0,0-.23-2h-.06Q128.05,129.72,129.17,133.16Zm6.26-5.51q1.94,4.35,5.16,3.52l.59-.12a7.51,7.51,0,0,0,1.7-4.8q-1.59-4-3.75-3.46c-.08-.23-.32-.29-.71-.17C135.57,123.32,134.58,125,135.43,127.65Z"/><path class="cls-1" d="M164.73,115c2.81.55,4.22,2,4.22,4.22q-1.17,5.63-3,5.62a1.78,1.78,0,0,0-.7.24,2,2,0,0,1-1.87-1.41,15.22,15.22,0,0,0,.93-4.45.41.41,0,0,0-.47-.47q-4.22.59-4.21,2.58,0,5.33,4.21,10.78l.47.23a41.6,41.6,0,0,1,4.69-3.05q7.16-4.56,13.24-5c1.92-1.25,3.4-1.88,4.46-1.88l.23.47v.7c-.67,0-2.23,1.1-4.69,3.28l-14.88,8.32-.94,1.18a13.53,13.53,0,0,1,1.88,7,13.87,13.87,0,0,1-6.33,8,18,18,0,0,1-9.14,4q-6.33-.93-6.33-4.22v-1.17q0-1.93,3.52-4.92,2.58-3.28,10.54-9.38l.24-.47v-.46q-5.62-8.1-5.63-12.9.48-5.39,3.52-5.39A27,27,0,0,1,164.73,115Zm-13.59,35.62v.24c.08.47.62.7,1.64.7q3.87,0,9.61-5.39a19.71,19.71,0,0,1,1.4-3v-1.87a8.73,8.73,0,0,0-.46-2.11h-.94Q151.14,148.27,151.14,150.62Z"/><path class="cls-1" d="M194.67,117.87q2.34,0,5.39,2.81c2,0,3.05.7,3.05,2.11.16,0,.23.08.23.24q-3.27,5.91-3.28,10.07v.71c.32,1.4.71,2.11,1.18,2.11h1.4q3.29,0,11-8.91,0-.65,3.28-2.81a4.29,4.29,0,0,1,1.87-2.58h.24a2.68,2.68,0,0,0,.47,1.41,26.08,26.08,0,0,1-4.16,7.61q-7.8,10.2-13.19,10.2-4.86,0-7.26-5.63v-.47h-.71Q185.65,142,180.84,142h-.7q-4.57,0-5.86-4.92v-.47q0-6.39,9.61-13.36l6.56-4.22C190.45,118.5,191.86,118.1,194.67,117.87Zm-15.23,18v1.64c0,.31.19.47.47.47h.47q4.27,0,11.48-6.8,4.45-4.57,4.45-7V124c0-1.87-.7-2.81-2.11-2.81Q188.53,123,182,130.06A13.94,13.94,0,0,0,179.44,135.92Z"/><path class="cls-1" d="M239.2,95.78q3.75,0,4,3-1.29,8.37-4.28,11.71a36.62,36.62,0,0,1-11,10.08q-7.72,3.16-7.61,4.46c-.79,1.36-1.41,4.65-1.88,9.84l.18,2.11c.15,1.87,1.25,2.81,3.28,2.81h.94q4.86,0,10.43-4a40.34,40.34,0,0,0,6.91-5.45q.41-1,5.39-5l2.29-3.28c.66.23,1,.47,1,.7q-1.63,6.51-8.14,12.07-9.27,9-17.11,9h-1.17q-5.69,0-8.21-6.1l-.23-2.81q.47-6.21,2.17-8.91a10.81,10.81,0,0,1,.29-4.24c.35-1.08.88-1.62,1.58-1.62,0-.54.65-1.79,2-3.75q.06-2.62,5.86-9.37Q234.81,95.78,239.2,95.78ZM223.56,118l.47.24A29.37,29.37,0,0,0,235.63,108q1.63-1.29,3.87-7.74l-.06-1.17q-2.17,0-8.61,7.27Q224.08,115.23,223.56,118Z"/><path class="cls-1" d="M267.62,95.49h.47a3.67,3.67,0,0,1,3.16,1.64v.23a37.13,37.13,0,0,1-3.86,9.38q.12,2.34-7,10.31v.23q4.92,0,5.09,4.22.12,2.52-1.75,8.91h.7q5.33-1.69,13.59-8.79h.47c.31,0,.47.2.47.47q.12,2.4-6.21,8.55a17.89,17.89,0,0,1-8.38,4.22,20.88,20.88,0,0,0-3-.23c-.23,0-2.09,2-5.56,6.09q-4.22,1.88-6.27,1.88-5-1.59-5.22-7l-.06-1.17,2.17-9.37a12.13,12.13,0,0,0-2.87-1.41,2.61,2.61,0,0,1-.47-1.17q-.06-.34,1.35-1.41l.47.24c2.73,0,4.47-1.1,5.21-3.28q0-.76,2.41-4.22a81.82,81.82,0,0,1,11.3-15.71A41.18,41.18,0,0,1,267.62,95.49ZM251.27,125a22.69,22.69,0,0,0-2.57,10.54c.07,2,.66,3.05,1.75,3.05q2.58,0,7.09-4.92l-.05-.23q-5.52-3.93-5.69-8.21ZM256,114.94v.23h.23q3.87-2.46,8.74-10.07c.78-1.88,1.44-2.82,2-2.82l-.06-1.64h-.24q-1.33,0-5.15,5.63Q259.24,108.67,256,114.94Zm.7,11q.12,2.22,2.76,3.75h.7a12.27,12.27,0,0,0,2.52-7.27l-.29-.94a1.53,1.53,0,0,0,.17-.94l-.7-.46h-.47c-2.77,0-4.33,1.79-4.69,5.39Z"/><path class="cls-1" d="M277.06,120.39h.46a2,2,0,0,1,1.88,1.17v.7q-4,7.5-4,12.19V137a2.69,2.69,0,0,0,1.4,2.58h1.88q3.1,0,11-7,.71,0,1.41-1.41.35,0,6.33-6.56c.23,0,.47-.47.7-1.41a4.59,4.59,0,0,1,2.11-.94h.23c.32,0,.47.2.47.47q-2,6.27-8,13.13-7,6.67-11.95,8l-2.34.46q-8.2-.93-8.21-8c-.19,0-.35-.47-.47-1.41q1.77-9.25,5.16-12.42ZM290,101.17c1.64.31,2.5.47,2.57.47v.7q-.81,2.64-7.73,7.27c-2.31,1.4-4,2.11-5.16,2.11-1.56-.2-2.34-1-2.34-2.35q0-1.75,7.5-5.39A25.4,25.4,0,0,1,290,101.17Z"/><path class="cls-1" d="M300.26,120.15c1.52.12,2.32.73,2.4,1.82l.06.41a5.82,5.82,0,0,1-1.23,3.93v.23h.18q4.68-5,7.14-5.45c0-.27.67-.74,2.11-1.4h1.41q4.62,0,5.16,5.62a4.66,4.66,0,0,0-.65,1.64l.24.41c-1,3.67-1.41,6.08-1.29,7.21l.11,1.46c0,.2.28.39.71.59H317a27.74,27.74,0,0,0,10.54-5.22,34.77,34.77,0,0,0,6.86-6.73,6.42,6.42,0,0,1,2.05-2,1.19,1.19,0,0,1,1.17.24c.35.29.12,1.12-.7,2.49a44.71,44.71,0,0,1-6.68,8.35,41,41,0,0,1-8,5.71,13.74,13.74,0,0,1-4.28,1.41c-4.22-.43-6.46-2-6.74-4.63A4,4,0,0,1,311,135q-.12-1.41,2.11-9.67l-.17-1.58a.43.43,0,0,0-.47-.41h-.77a69,69,0,0,0-7.09,6c-.19,0-.8.75-1.81,2.23q-.82.3-3.58,4.8c-.5.12-1,1.28-1.46,3.46-1.56,2.89-2.56,4.44-3,4.63,0,.12-.21.26-.76.41-1.91-.39-2.93-1.13-3.05-2.23v-.17a42.25,42.25,0,0,1,3.34-11.31,58.88,58.88,0,0,0,4.46-10.2A2.68,2.68,0,0,1,300.26,120.15Z"/><path class="cls-1" d="M347,117.87q2.34,0,5.39,2.81c2,0,3,.7,3,2.11a.21.21,0,0,1,.23.24q-3.28,5.91-3.28,10.07v.71c.31,1.4.7,2.11,1.17,2.11h1.41q3.27,0,11-8.91c0-.43,1.1-1.37,3.28-2.81a4.3,4.3,0,0,1,1.88-2.58h.23a2.77,2.77,0,0,0,.47,1.41,25.85,25.85,0,0,1-4.16,7.61q-7.78,10.2-13.18,10.2-4.87,0-7.27-5.63v-.47h-.7Q337.94,142,333.13,142h-.7q-4.57,0-5.86-4.92v-.47q0-6.39,9.61-13.36l6.56-4.22C342.74,118.5,344.15,118.1,347,117.87Zm-15.24,18v1.64c0,.31.2.47.47.47h.47q4.27,0,11.49-6.8c3-3,4.45-5.39,4.45-7V124c0-1.87-.7-2.81-2.11-2.81q-5.69,1.88-12.19,8.91A14.2,14.2,0,0,0,331.72,135.92Z"/></svg>