<svg id="Capa_1" data-name="Capa 1" xmlns="http://www.w3.org/2000/svg" width="395" height="229" viewBox="0 0 395 229"><defs><style>.cls-1,.cls-6{fill:#e182a8;}.cls-2{isolation:isolate;font-size:36px;fill:#1d1d1b;font-family:Lato-Regular, Lato;letter-spacing:0.19em;}.cls-3{letter-spacing:0.13em;}.cls-4{letter-spacing:0.15em;}.cls-5{letter-spacing:0.19em;}.cls-6{font-size:128px;font-family:Beauty, Beauty;}.cls-7{font-size:120px;}</style></defs><title>Sin título-3</title><path class="cls-1" d="M93.49,53.77c5.41,5.68,12,12.17,10.3,20.77-1.11,5.52-4.51,9.87-8.37,13.8,1,.1,2.08.28,3.12.36,4.85-4.42,8.54-9.9,8.72-16.81.26-10.43-9.6-18.61-16.34-25.31-4.06-4-8.39-7.72-12.65-11.54-4-3.61-7.93-8.55-5.8-14.25,1.86-5,6.93-9.24,11.46-11.76,5.37-3,12-3.44,16.38,1.5s3.4,12.25-1.63,16.39a9.44,9.44,0,0,1-9.33,1.69c-3.59-1.46-4.94-6.29-1.67-8.89.26-.21-.07-.61-.35-.45-3.67,2.09-3.17,7.33,0,9.62,3.89,2.78,9.29,1.49,12.75-1.34,8.36-6.84,4.26-20.75-6.31-22.33-5.69-.86-11.11,2.13-15.39,5.59s-8.81,8.41-8.55,14.39c.23,5.52,4.53,9.87,8.26,13.48C83.28,43.69,88.54,48.57,93.49,53.77Z"/><path class="cls-1" d="M117,18.16a8.78,8.78,0,0,0-4.56-4.78c-.7-.31-1.51.51-.88,1.14,1.2,1.17,2.42,2.4,3.64,3.68,1.42,3.5-.2,8.14-2.39,11.35-3.18,4.67-7.89,8.13-10.43,13.25-4.1,8.24-3.22,18.8,3.54,25.34a.27.27,0,0,0,.42-.33,27.73,27.73,0,0,1-3.82-16.06c.53-6.34,3.89-10.94,8.06-15.49,3.18-3.48,7.46-8,7.43-13.08a13.82,13.82,0,0,0-.19-2.13c7.59,8.58,14,19.07,10.86,30.68-1.76,6.48-6.39,11.64-11.1,16.2-5.3,5.13-10.89,10-16.18,15.09-.61.59.3,1.48.92.93,6.14-5.46,12.34-11,18.08-16.91,4.56-4.67,8.75-10.12,10-16.69C132.69,37.72,125.14,27.1,117,18.16Z"/><path class="cls-1" d="M118.81,34.68c-.15-.18-.49,0-.4.23,3.49,8.28-4.17,15.75-7.69,22.67a68.74,68.74,0,0,0-7,22.69c0,.19.27.21.32,0A125.64,125.64,0,0,1,115.41,54.2C118.68,48.7,123.73,40.77,118.81,34.68Z"/><path class="cls-1" d="M100.19,67.68c-2.71-.25-5.51.53-8.18.93a75.34,75.34,0,0,1-10.92,1c-6.34,0-12.91-1.19-18.1-5-4.22-3.13-8.71-8.93-8.1-14.57,5.76,3.73,15,2.57,21.21,2.29,8.7-.39,19,.1,24,8.48a0,0,0,0,0,.08,0c-2.47-7.2-10.22-10.32-17.26-10.85-5.05-.39-10.11.29-15.16.21A35,35,0,0,1,61,49.41c-2.29-.48-4.32-1.55-6.55-2.21a1,1,0,0,0-1.28,1c.4,4.67,1.17,8.59,4.1,12.41a25,25,0,0,0,11.44,8.23c5.64,2,11.76,2.13,17.66,1.6,4-.36,20.44-4.81,18,3.65a.4.4,0,0,0,.73.31C107.09,71,103.34,68,100.19,67.68Z"/><path class="cls-1" d="M105.39,66.87c-2.28-7.2-10.71-6.35-16.69-5.08-4.5,1-8.89,1.42-13.42.37-4.34-1-7.57-3.27-11.27-5.57-.12-.08-.23.1-.15.2,4,4.87,11.52,7.22,17.59,7.61,4.08.27,8-.82,12.06-1.1,3.84-.27,8.49.68,11,4C104.81,67.65,105.58,67.45,105.39,66.87Z"/><path class="cls-1" d="M79.4,21.49a5.21,5.21,0,0,0-6.84,2.74c-1.54,3.57.58,7.24,2.73,10,.11.14.32,0,.24-.18-1.7-3-4.41-8-1-11A4.14,4.14,0,0,1,81.18,25c.92,3.14-2.27,6.16-5.12,3.68a.33.33,0,0,0-.51.4c1.28,2.46,4.6,1.86,6-.2A5.16,5.16,0,0,0,79.4,21.49Z"/><path class="cls-1" d="M91.77,8.69c-2.55-1.42-5.7-.86-8.34,0a.12.12,0,0,0,.06.24c3.2-.45,8.3-1.52,9.89,2.44A3.44,3.44,0,0,1,91,16c-1.89.39-3-.93-4-2.23-.27-.33-.71,0-.65.38.77,4.38,7.43,3.3,8-.69A4.75,4.75,0,0,0,91.77,8.69Z"/><path class="cls-1" d="M74.58,8.5c-2.44-2-6.54-2.8-9.25-.86-2,1.44-3.11,4.48-1.62,6.66,1.35,1.95,4.41,2.4,5.93.46a.25.25,0,0,0-.36-.35,3.28,3.28,0,0,1-4.92-1c-1-1.95.18-4.37,2-5.36a7.08,7.08,0,0,1,6.22.15c2.24,1.09,4.33,3.84,1.92,6-.15.14,0,.38.22.28C77.16,13.12,76.43,10.06,74.58,8.5Z"/><text class="cls-2" transform="translate(83.99 218.55)">S<tspan class="cls-3" x="26.06" y="0">P</tspan><tspan x="52.56" y="0">A SA</tspan><tspan class="cls-4" x="155.48" y="0">L</tspan><tspan class="cls-5" x="179.53" y="0">ON</tspan></text><text class="cls-6" transform="translate(48.55 169.84)">R<tspan class="cls-7" x="80.5" y="0">osalbina</tspan></text></svg>